<?xml version="1.0" standalone="no"?>
<!DOCTYPE svg PUBLIC "-//W3C//DTD SVG 20010904//EN"
 "http://www.w3.org/TR/2001/REC-SVG-20010904/DTD/svg10.dtd">
<svg version="1.0" xmlns="http://www.w3.org/2000/svg"
 width="985.000000pt" height="985.000000pt" viewBox="0 0 985.000000 985.000000"
 preserveAspectRatio="xMidYMid meet">
<metadata>
Created by potrace 1.11, written by Peter Selinger 2001-2013
</metadata>
<g transform="translate(0.000000,985.000000) scale(0.100000,-0.100000)"
fill="#000000" stroke="none">
<path d="M6615 9844 c-276 -28 -438 -57 -614 -110 -441 -134 -816 -354 -1144
-674 -238 -231 -399 -449 -548 -745 -119 -236 -200 -469 -244 -702 -10 -51
-21 -93 -25 -93 -5 0 -41 16 -81 35 -41 19 -110 45 -154 57 l-80 23 -1653 3
c-1645 2 -1652 2 -1692 -18 -93 -48 -126 -179 -68 -268 56 -84 -111 -76 1723
-82 l1630 -5 78 -28 c186 -65 309 -188 374 -374 l28 -78 3 -2923 c2 -3259 8
-2994 -69 -3151 -78 -158 -226 -276 -405 -321 -71 -18 -112 -20 -491 -20
l-414 0 32 46 c44 64 106 200 125 275 15 58 17 322 26 2888 9 2603 8 2828 -7
2867 -56 148 -265 162 -336 22 l-21 -42 -8 -2805 -8 -2806 -22 -64 c-67 -198
-272 -350 -507 -377 l-63 -7 0 -184 0 -184 868 3 867 3 89 28 c341 106 588
359 688 702 l23 80 3 1728 2 1727 1006 -2 1006 -3 891 -1538 c490 -845 894
-1537 898 -1537 5 0 77 40 161 89 93 54 152 95 150 103 -2 7 -377 657 -833
1444 -456 788 -829 1434 -829 1437 0 2 42 7 93 10 322 18 928 249 1292 492
646 431 1067 1101 1190 1895 23 143 31 523 16 676 -56 544 -261 1049 -599
1474 -93 117 -308 333 -422 424 -403 321 -863 518 -1380 591 -110 15 -460 28
-545 19z m485 -389 c585 -75 1129 -369 1516 -818 504 -585 696 -1377 517
-2132 -144 -607 -525 -1145 -1036 -1462 -232 -143 -585 -292 -882 -371 l-100
-27 -1297 -3 -1297 -2 -3 1102 -3 1103 -23 80 c-12 44 -40 118 -62 163 -46 96
-47 114 -25 289 102 793 604 1492 1327 1848 291 143 594 222 953 249 80 6 301
-4 415 -19z"/>
</g>
</svg>
